<svg width="37" height="37" viewBox="0 0 37 37" fill="none" xmlns="http://www.w3.org/2000/svg">
<g id="maki:shop">
<path id="Vector" d="M32.8806 12.3333H28.3666L27.4046 6.58601C27.2107 5.71643 26.785 4.91557 26.1727 4.26846C25.5603 3.62136 24.7841 3.15215 23.9266 2.91067C23.065 2.63348 22.1675 2.4839 21.2626 2.46667H15.7372C14.8323 2.4839 13.9348 2.63348 13.0732 2.91067C12.2157 3.15215 11.4395 3.62136 10.8271 4.26846C10.2148 4.91557 9.78907 5.71643 9.59523 6.58601L8.63323 12.3333H4.11923C3.92496 12.3322 3.73315 12.3769 3.55944 12.4639C3.38573 12.5509 3.23503 12.6777 3.11962 12.834C3.00421 12.9903 2.92735 13.1716 2.89531 13.3632C2.86327 13.5549 2.87695 13.7513 2.93523 13.9367L7.57257 29.4767C7.80866 30.2274 8.27796 30.8833 8.91229 31.349C9.54662 31.8148 10.3129 32.0662 11.0999 32.0667H25.8999C26.6826 32.061 27.4434 31.8072 28.0728 31.3418C28.7022 30.8764 29.1678 30.2234 29.4026 29.4767L34.0399 13.9367C34.0976 13.7533 34.1116 13.559 34.0809 13.3693C34.0501 13.1796 33.9755 12.9996 33.8628 12.8439C33.7502 12.6881 33.6028 12.5609 33.4322 12.4722C33.2617 12.3836 33.0728 12.336 32.8806 12.3333ZM11.1492 12.3333L12.0372 6.98067C12.1346 6.54364 12.3604 6.1457 12.6857 5.83802C13.0109 5.53033 13.4208 5.32694 13.8626 5.25401C14.4694 5.06161 15.1008 4.95554 15.7372 4.93334H21.2626C21.9064 4.95307 22.5452 5.06161 23.1619 5.25401C23.6037 5.32694 24.0135 5.53033 24.3388 5.83802C24.6641 6.1457 24.8899 6.54364 24.9872 6.98067L25.8506 12.3333H11.0506H11.1492Z" fill="white"/>
</g>
</svg>
