<svg width="30" height="30" viewBox="0 0 30 30" fill="none" xmlns="http://www.w3.org/2000/svg">
<path id="Vector" d="M15 0C6.71371 0 0 6.71371 0 15C0 23.2863 6.71371 30 15 30C23.2863 30 30 23.2863 30 15C30 6.71371 23.2863 0 15 0ZM27.0968 15C27.0968 16.3609 26.8609 17.6734 26.4435 18.8952H25.2157C24.9556 18.8952 24.7077 18.7923 24.5262 18.6048L22.5907 16.6331C22.3185 16.3548 22.3185 15.9012 22.5968 15.623L23.3528 14.8669V14.3407C23.3528 14.1593 23.2802 13.9839 23.1532 13.8569L22.5847 13.2883C22.4577 13.1613 22.2823 13.0887 22.1008 13.0887H21.1331C20.7581 13.0887 20.4496 12.7802 20.4496 12.4052C20.4496 12.2238 20.5222 12.0484 20.6492 11.9214L21.2177 11.3528C21.3448 11.2258 21.5202 11.1532 21.7016 11.1532H23.6371C24.0121 11.1532 24.3206 10.8448 24.3206 10.4698V9.90121C24.3206 9.52621 24.0121 9.21774 23.6371 9.21774H21.4173C20.8851 9.21774 20.4496 9.65323 20.4496 10.1855V10.4577C20.4496 10.875 20.1835 11.244 19.7903 11.377L17.879 12.0121C17.6794 12.0786 17.5464 12.2601 17.5464 12.4718V12.6048C17.5464 12.871 17.3286 13.0887 17.0625 13.0887H16.0948C15.8286 13.0887 15.6109 12.871 15.6109 12.6048C15.6109 12.3387 15.3931 12.121 15.127 12.121H14.9395C14.7581 12.121 14.5887 12.2238 14.504 12.3871L13.9355 13.5181C13.7722 13.8448 13.4395 14.0504 13.0706 14.0504H11.7339C11.2016 14.0504 10.7661 13.6149 10.7661 13.0827V11.5524C10.7661 11.2984 10.869 11.0504 11.0504 10.869L12.2661 9.65323C12.5444 9.375 12.7016 8.99395 12.7016 8.59476C12.7016 8.38911 12.8347 8.20161 13.0343 8.13508L15.4536 7.33064C15.5565 7.29435 15.6472 7.23992 15.7198 7.16734L17.3407 5.54637C17.4677 5.41935 17.5403 5.24395 17.5403 5.0625C17.5403 4.6875 17.2319 4.37903 16.8569 4.37903H15.6048L14.6371 5.34677V5.83065C14.6371 6.09677 14.4194 6.31452 14.1532 6.31452H13.1855C12.9194 6.31452 12.7016 6.09677 12.7016 5.83065V4.62097C12.7016 4.46976 12.7742 4.3246 12.8952 4.23387L14.6431 2.92137C14.7581 2.91532 14.873 2.90323 14.9879 2.90323C21.6714 2.90323 27.0968 8.32863 27.0968 15ZM7.86895 8.53427C7.86895 8.35282 7.94153 8.17742 8.06855 8.0504L9.60484 6.51411C9.73185 6.3871 9.90726 6.31452 10.0887 6.31452C10.4637 6.31452 10.7722 6.62298 10.7722 6.99798V7.96573C10.7722 8.14718 10.6996 8.32258 10.5726 8.4496L10.004 9.01815C9.87702 9.14516 9.70161 9.21774 9.52016 9.21774H8.55242C8.17742 9.21774 7.86895 8.90927 7.86895 8.53427ZM15.6109 27.0665V26.6371C15.6109 26.1048 15.1754 25.6694 14.6431 25.6694H13.4214C12.7681 25.6694 11.8065 25.3488 11.2802 24.9556L9.9375 23.9456C9.24194 23.4254 8.83669 22.6089 8.83669 21.744V20.2984C8.83669 19.3306 9.34476 18.4355 10.1734 17.9395L12.7681 16.3851C13.1976 16.131 13.6875 15.9919 14.1835 15.9919H16.0706C16.7298 15.9919 17.3649 16.2278 17.8609 16.6512L20.4738 18.8952H21.5806C22.0948 18.8952 22.5847 19.1008 22.9476 19.4637L23.994 20.5101C24.1996 20.7157 24.4839 20.8306 24.7742 20.8306H25.5847C23.625 24.3931 19.9113 26.8488 15.6109 27.0665Z" fill="white"/>
</svg>
